PathFileType	4	(X/Y/Z)	/Users/niels/Desktop/University/Third Semester/Perception and Action/Exam/Gymnastics Motion Tracking/Code for Gym Tracking/Analyzed Data/Webcam_Backflip/id5_2_baseline_Sports2D/id5_2_baseline_Sports2D_px_person00.trc
DataRate	CameraRate	NumFrames	NumMarkers	Units	OrigDataRate	OrigDataStartFrame	OrigNumFrames
29.81132075471698	29.81132075471698	8	22	m	29.81132075471698	19	159
Frame#	Time	Hip			RHip			RKnee			RAnkle			RBigToe			RSmallToe			RHeel			LHip			LKnee			LAnkle			LBigToe			LSmallToe			LHeel			Neck			Head			Nose			RShoulder			RElbow			RWrist			LShoulder			LElbow			LWrist		
		X1	Y1	Z1	X2	Y2	Z2	X3	Y3	Z3	X4	Y4	Z4	X5	Y5	Z5	X6	Y6	Z6	X7	Y7	Z7	X8	Y8	Z8	X9	Y9	Z9	X10	Y10	Z10	X11	Y11	Z11	X12	Y12	Z12	X13	Y13	Z13	X14	Y14	Z14	X15	Y15	Z15	X16	Y16	Z16	X17	Y17	Z17	X18	Y18	Z18	X19	Y19	Z19	X20	Y20	Z20	X21	Y21	Z21	X22	Y22	Z22
19	0.6373417721518987	0.995370911177417	-0.6201163579169965	0.0	0.9953489948877504	-0.6172356704594731	0.0	1.0382473442636837	-0.7155962575132486	0.0	0.9841930711485118	-0.8098187805049594	0.0	1.0216383757636374	-0.8293971596935427	0.0	1.0094808320655508	-0.8319719795671737	0.0	0.9709206634759248	-0.8230579368568124	0.0	0.9957002313235233	-0.6162059523698225	0.0	1.0327074537440462	-0.7147683634865742	0.0	0.9868764276454262	-0.8048394951869183	0.0	1.0296801255326025	-0.8258774882624074	0.0	1.023498553138807	-0.8216152235614	0.0	0.9741971978002293	-0.8156643128286076	0.0	1.0151561237509563	-0.47331030225868537	0.0	1.035796075338472	-0.4130356238172332	0.0	1.0501678868119855	-0.4444140456792703	0.0	1.0088929861969809	-0.49413254235498827	0.0	0.9984279434980313	-0.5676174039882944	0.0	1.0008629536181974	-0.6320352419310745	0.0	1.0085315625116467	-0.49075958220289867	0.0	1.01057348460061	-0.5646668411131144	0.0	1.0257900369424242	-0.621686117105489	0.0
20	0.6708860759493671	0.9961162516770642	-0.6146113237677113	0.0	0.9951885282070227	-0.611954045535061	0.0	1.0360473913720718	-0.7109336562408906	0.0	0.9836937756849373	-0.8061076361953317	0.0	1.022537896984287	-0.8248702083864221	0.0	1.009802994700182	-0.8281084534086302	0.0	0.9714856351446947	-0.8199130929338826	0.0	0.9962091873591231	-0.6110278615460214	0.0	1.0307842143732653	-0.7101735677421094	0.0	0.9861849738029999	-0.8005765200494083	0.0	1.0290093673709724	-0.8222504070270832	0.0	1.0230793492843153	-0.8178655415263627	0.0	0.9731458094453835	-0.812135333134447	0.0	1.0161192425556007	-0.46803763969820755	0.0	1.0376457203163063	-0.4082771947937134	0.0	1.051471013302304	-0.43955806576478273	0.0	1.008815896507583	-0.4876519567770125	0.0	0.9922021468369769	-0.5576157988987419	0.0	0.9867862531365155	-0.6216243435192836	0.0	1.0087250155951502	-0.48487337950796405	0.0	1.0007866615197492	-0.5565572868531976	0.0	1.0076297993079129	-0.6131598670058764	0.0
21	0.7044303797468354	0.9962720336764701	-0.6071266941726674	0.0	0.9945828047405035	-0.6046654672055173	0.0	1.0333440953924558	-0.7044879264057646	0.0	0.9830986492663086	-0.8009594452186294	0.0	1.0233460601754438	-0.8189207831624603	0.0	1.0103484134377532	-0.822847456211955	0.0	0.9717604948303875	-0.815178639000261	0.0	0.9962649615435235	-0.6038138077929426	0.0	1.0284285908829498	-0.7037383768389266	0.0	0.985518694480951	-0.7942713792454809	0.0	1.027982639358913	-0.8165677400180352	0.0	1.0224337979634015	-0.8120435028782561	0.0	0.9720096763190105	-0.8067015200758889	0.0	1.0171851711432096	-0.46104573547650873	0.0	1.0400560443446467	-0.40149867336428374	0.0	1.0531507831894602	-0.4328321233458129	0.0	1.0090138934817956	-0.47891897339147765	0.0	0.986643100369378	-0.5443645221848366	0.0	0.9737011053697561	-0.6062269535201357	0.0	1.0090721912530445	-0.4769304045985075	0.0	0.9922938903402261	-0.5449889084083085	0.0	0.9893064290358891	-0.5995091163680887	0.0
22	0.7379746835443037	0.9958908885099623	-0.5982401686793977	0.0	0.9936789241664045	-0.5960067852485915	0.0	1.0302230478007963	-0.6969286063530621	0.0	0.9825687944991501	-0.7947624707466063	0.0	1.0236023246506951	-0.8122244829644675	0.0	1.0107553593417429	-0.81669213813622	0.0	0.9717915637609349	-0.8092887409747636	0.0	0.9958095276660277	-0.5952006349432566	0.0	1.0254157032126057	-0.6960687173465704	0.0	0.9850632860086213	-0.7866099010185452	0.0	1.0263587302905033	-0.8092262506118177	0.0	1.0212691723519103	-0.8046382508599826	0.0	0.9710783037289985	-0.7999789969958107	0.0	1.0181612301263594	-0.4529801211910472	0.0	1.0429291351519832	-0.3932399256018453	0.0	1.0550953691906562	-0.42481950495361076	0.0	1.0095707132757306	-0.46874998797793826	0.0	0.981735935822289	-0.5286777388786474	0.0	0.9614845805959433	-0.5865986912659237	0.0	1.009527791553745	-0.4677513957947606	0.0	0.9855535475276351	-0.5308875411850186	0.0	0.9721212786961676	-0.5816815852814492	0.0
23	0.7715189873417722	0.9951596563201905	-0.5885670800307358	0.0	0.9927320274559012	-0.586686524300932	0.0	1.0267873732870132	-0.6889132559987509	0.0	0.9822447522058051	-0.7879962927452462	0.0	1.0231973380517376	-0.8055129002799568	0.0	1.0108787780062385	-0.8102377691078072	0.0	0.9716918056567807	-0.8027929662008861	0.0	0.9950138172988116	-0.5859258889606808	0.0	1.021724966069267	-0.6878259352279175	0.0	0.9848744429177646	-0.778409696589357	0.0	1.024097348612593	-0.8009620299157552	0.0	1.0193697855939454	-0.7964653703584391	0.0	0.9704414376950864	-0.7926991462318816	0.0	1.0188880424535673	-0.4445075229326903	0.0	1.0461319363585033	-0.3841460202371017	0.0	1.0571710862792243	-0.41625030764809157	0.0	1.0105154930967104	-0.45802486755218014	0.0	0.9774780244879668	-0.5113673880765275	0.0	0.9501734764036819	-0.5636287210444128	0.0	1.0099183837023322	-0.4581205687283058	0.0	0.9804623028644496	-0.5150875933542908	0.0	0.9572203815663604	-0.5607669254695336	0.0
24	0.8050632911392405	0.9942753493063603	-0.5787592460359453	0.0	0.9919228158148774	-0.5773520481204841	0.0	1.0231850553208135	-0.6810139457564033	0.0	0.9821803145805634	-0.7812287920346515	0.0	1.0224203931876772	-0.7994684397592736	0.0	1.0108256527793826	-0.8041362589550163	0.0	0.9715432157323243	-0.7962786891845935	0.0	0.9941489833735729	-0.5766612062737144	0.0	1.0176021172501384	-0.6796733594456451	0.0	0.9848968279424969	-0.770516139973344	0.0	1.0215108960642922	-0.7927630785817699	0.0	1.0168380761394409	-0.7884951914534057	0.0	0.9700376289812145	-0.7855474505594502	0.0	1.0193206337764884	-0.4361774007955736	0.0	1.0495545202742822	-0.3749259254072626	0.0	1.0592647529003751	-0.4078790553754187	0.0	1.0117854206693497	-0.44748927839581276	0.0	0.9737971792927643	-0.4933094181711889	0.0	0.9398569557814027	-0.5383117973389768	0.0	1.0100819057334232	-0.4486175605039562	0.0	0.9767314724641524	-0.49838721568038663	0.0	0.9455852549025353	-0.5380007969620426	0.0
25	0.8386075949367088	0.9933201616090211	-0.5694793065874083	0.0	0.991220314749604	-0.5685445187270193	0.0	1.0195936620975337	-0.6736840527458978	0.0	0.9823335820400771	-0.7750098299394379	0.0	1.021698151170833	-0.794559124781366	0.0	1.0107966373331199	-0.7989400397229386	0.0	0.9713639392462053	-0.7902708466409822	0.0	0.9932931116390706	-0.5679275872423196	0.0	1.0134532434779766	-0.6721901597339034	0.0	0.984999933840617	-0.763678474610587	0.0	1.019065616959273	-0.7856103315283514	0.0	1.014034167583848	-0.7816313058172578	0.0	0.9696915498855291	-0.7791030238129435	0.0	1.0195275224443645	-0.4284318722996011	0.0	1.0531100309304187	-0.3662887663942314	0.0	1.0612607224999349	-0.4003522123433339	0.0	1.0132096525802214	-0.4377012259259272	0.0	0.9704925477984807	-0.4755444948929418	0.0	0.930559318131633	-0.5118307259198261	0.0	1.0099310503542325	-0.439626523839363	0.0	0.9741044866368807	-0.48163032590850363	0.0	0.9378129044289739	-0.514729819928575	0.0
26	0.8721518987341772	0.9922390473180629	-0.5613467160929165	0.0	0.9904269600618437	-0.5607463599004938	0.0	1.0162269712442589	-0.6672540927698474	0.0	0.9826197349672804	-0.7697304505838586	0.0	1.0213062715181065	-0.7909345844617497	0.0	1.0109266994978543	-0.7949177478509473	0.0	0.971144714851721	-0.7851145260536295	0.0	0.9922344897099504	-0.560163390549512	0.0	1.0096602301865611	-0.66578564764096	0.0	0.9850153637605024	-0.7584179369312379	0.0	1.0170931733435449	-0.780155590498747	0.0	1.011371139775405	-0.7764792508490234	0.0	0.9692107337716466	-0.7738158821580503	0.0	1.019610866333062	-0.4216786987067449	0.0	1.0566633156932095	-0.35886070688419547	0.0	1.0630286833246807	-0.3941214206125535	0.0	1.0145508036318187	-0.42909439023287166	0.0	0.9673011515102645	-0.45918056270243224	0.0	0.9222240739967661	-0.48561955764950043	0.0	1.0094890009385025	-0.4314994050465944	0.0	0.9723924823699239	-0.4657004043019353	0.0	0.9337870675603096	-0.4923409855323155	0.0
